<?xml version="1.0" standalone="no"?>
<!DOCTYPE svg PUBLIC "-//W3C//DTD SVG 20010904//EN"
 "http://www.w3.org/TR/2001/REC-SVG-20010904/DTD/svg10.dtd">
<svg version="1.0" xmlns="http://www.w3.org/2000/svg"
 width="600.000000pt" height="700.000000pt" viewBox="0 0 600.000000 700.000000"
 preserveAspectRatio="xMidYMid meet">

<g transform="translate(0.000000,700.000000) scale(0.100000,-0.100000)"
fill="#000000" stroke="none">
<path d="M2400 6681 c-15 -30 -14 -783 2 -799 8 -8 61 -12 173 -12 112 0 165
4 173 12 16 16 17 769 2 799 -10 18 -23 19 -175 19 -152 0 -165 -1 -175 -19z
m340 -396 l0 -395 -165 0 -165 0 0 395 0 395 165 0 165 0 0 -395z"/>
<path d="M2490 6060 l0 -160 35 0 35 0 0 58 c0 55 -1 58 -27 60 -38 3 -42 12
-5 12 25 0 32 4 32 19 0 15 -8 21 -32 24 l-33 4 33 1 c24 2 32 7 32 21 0 15
-8 21 -32 24 l-33 4 33 1 c31 2 32 3 32 47 0 45 0 45 -35 45 l-35 0 0 -160z"/>
<path d="M2640 6140 c0 -29 2 -30 45 -30 43 0 45 1 45 30 0 29 -2 30 -45 30
-43 0 -45 -1 -45 -30z"/>
<path d="M2827 6693 c-4 -3 -7 -133 -7 -288 0 -205 3 -284 12 -293 8 -8 49
-12 120 -12 89 0 108 -3 108 -15 0 -11 -11 -15 -41 -15 -39 0 -40 -1 -37 -32
l3 -33 210 0 210 0 3 33 c3 31 2 32 -32 32 -25 0 -36 4 -36 15 0 12 17 15 96
15 52 0 104 5 115 10 18 10 19 24 19 285 0 150 -3 280 -6 289 -5 14 -47 16
-368 16 -200 0 -366 -3 -369 -7z m723 -227 l0 -213 -232 -1 c-222 -1 -232 -2
-254 -23 -21 -20 -29 -21 -123 -14 l-101 7 0 229 0 229 355 0 355 0 0 -214z
m-204 -257 c-1 -30 27 -47 49 -29 9 7 14 22 12 32 -5 16 2 18 69 18 l75 0 -3
-52 -3 -53 -350 0 -350 0 -3 39 -3 39 111 -6 c102 -5 112 -4 123 14 11 17 24
19 143 19 127 0 131 -1 130 -21z m44 -4 c0 -8 -7 -15 -15 -15 -8 0 -15 7 -15
15 0 8 7 15 15 15 8 0 15 -7 15 -15z m-70 -120 c0 -13 -18 -15 -122 -13 -86 2
-123 7 -126 16 -3 9 26 12 122 12 106 0 126 -2 126 -15z m68 -47 c-4 -10 -53
-14 -191 -16 -162 -2 -187 0 -187 13 0 13 27 15 191 15 148 0 190 -3 187 -12z"/>
<path d="M2904 6617 c-2 -7 -3 -80 -2 -162 l3 -150 288 -3 287 -2 0 165 0 165
-285 0 c-225 0 -287 -3 -291 -13z m186 -40 c0 -2 -12 -3 -27 -2 -21 0 -28 -5
-28 -20 0 -16 6 -20 29 -18 20 2 26 -1 19 -8 -19 -19 -58 -6 -61 20 -5 32 23
54 49 40 11 -5 19 -11 19 -12z m-100 -17 c13 -9 13 -11 0 -20 -8 -5 -19 -10
-25 -10 -5 0 -4 4 4 9 11 7 10 11 -5 20 -14 8 -15 10 -4 11 8 0 22 -5 30 -10z"/>
<path d="M2823 5963 c-8 -3 -13 -23 -13 -49 l0 -44 378 2 377 3 3 37 c2 28 -1
39 -16 47 -19 10 -703 14 -729 4z m725 -45 l3 -28 -360 0 -361 0 0 23 c0 13 2
26 5 29 3 3 164 5 358 4 l352 -1 3 -27z"/>
<path d="M1848 4950 c19 -4 39 -13 45 -19 17 -17 17 -565 0 -582 -6 -6 -26
-15 -45 -19 -21 -5 17 -8 107 -8 87 0 128 3 108 8 -61 14 -63 19 -63 169 l0
136 125 -125 c132 -132 144 -153 95 -177 -21 -11 -1 -13 129 -13 l154 0 -59
30 c-44 22 -97 67 -208 179 l-149 150 127 125 c91 89 140 129 170 140 40 14
38 14 -84 14 -94 0 -117 -2 -92 -9 26 -8 32 -15 32 -37 0 -21 -24 -50 -117
-141 l-118 -115 -3 129 c-3 143 0 151 59 165 22 5 -15 8 -106 8 -90 0 -128 -3
-107 -8z"/>
<path d="M2540 4950 c59 -14 60 -17 60 -310 0 -293 -1 -296 -60 -310 -22 -5
61 -8 211 -9 l247 -1 27 75 c16 42 24 79 20 83 -4 4 -10 1 -12 -6 -10 -27 -70
-97 -93 -109 -33 -17 -222 -17 -238 -1 -8 8 -12 55 -12 145 l0 133 93 0 c104
0 131 -11 142 -60 13 -61 25 -27 25 75 0 102 -12 136 -25 75 -11 -49 -38 -60
-142 -60 l-93 0 0 130 0 130 110 0 c61 0 120 -5 134 -11 16 -8 32 -28 42 -55
17 -45 41 -62 30 -21 -3 12 -6 43 -6 70 l0 47 -247 -1 c-151 -1 -235 -4 -213
-9z"/>
<path d="M3130 4950 c59 -14 60 -17 60 -310 0 -293 -1 -296 -60 -310 -22 -5
61 -8 211 -9 l247 -1 27 75 c16 42 24 79 20 83 -4 4 -10 1 -12 -6 -10 -27 -70
-97 -93 -109 -33 -17 -222 -17 -238 -1 -8 8 -12 55 -12 145 l0 133 93 0 c104
0 131 -11 142 -60 13 -61 25 -27 25 75 0 102 -12 136 -25 75 -11 -49 -38 -60
-142 -60 l-93 0 0 130 0 130 110 0 c61 0 120 -5 134 -11 16 -8 32 -28 42 -55
17 -45 41 -62 30 -21 -3 12 -6 43 -6 70 l0 47 -247 -1 c-151 -1 -235 -4 -213
-9z"/>
<path d="M3718 4951 c19 -5 39 -14 45 -20 9 -9 12 -93 12 -291 0 -198 -3 -282
-12 -291 -6 -6 -26 -15 -45 -19 -21 -5 18 -8 107 -7 77 0 127 2 110 4 -60 9
-65 23 -65 164 l0 128 65 -6 c88 -8 146 9 189 58 77 84 52 210 -52 261 -43 21
-62 23 -217 25 -107 1 -158 -1 -137 -6z m280 -41 c44 -27 65 -80 60 -149 -4
-47 -10 -59 -41 -88 -29 -26 -45 -33 -76 -33 -72 0 -71 -3 -71 145 0 97 3 135
13 138 29 12 84 6 115 -13z"/>
<path d="M1873 4001 c-134 -46 -214 -164 -215 -317 0 -107 23 -167 92 -236 62
-62 124 -88 210 -88 86 0 150 26 208 86 28 29 52 61 52 69 0 10 -21 -6 -52
-38 -62 -62 -118 -83 -199 -74 -150 18 -231 160 -201 353 26 166 112 246 245
231 74 -9 119 -44 158 -122 17 -36 34 -63 36 -61 6 6 -8 216 -14 216 -3 0 -13
-10 -22 -22 l-18 -22 -67 22 c-80 26 -143 27 -213 3z"/>
<path d="M2501 3797 c-149 -353 -165 -384 -203 -407 l-33 -20 105 1 c78 1 97
3 75 10 -59 17 -61 39 -15 147 l22 52 124 0 124 0 16 -37 c9 -21 23 -58 30
-82 12 -39 12 -46 -2 -62 -9 -10 -26 -20 -38 -22 -11 -2 38 -5 109 -5 121 -1
128 0 97 13 -18 8 -40 27 -48 42 -9 15 -68 154 -132 307 -65 154 -122 281
-127 283 -6 1 -52 -97 -104 -220z m133 -62 c25 -60 46 -113 46 -117 0 -5 -48
-8 -106 -8 -58 0 -104 4 -102 8 45 115 104 240 109 234 4 -4 28 -56 53 -117z"/>
<path d="M3000 4000 c59 -14 60 -17 60 -310 0 -293 -1 -296 -60 -310 -21 -5
66 -7 214 -7 l249 2 24 70 c30 91 25 114 -11 48 -42 -77 -62 -87 -187 -91 -89
-3 -108 -1 -122 13 -15 15 -17 47 -17 280 0 284 1 288 53 300 12 2 31 6 42 8
11 3 -47 5 -130 5 -98 0 -138 -3 -115 -8z"/>
<path d="M3586 3999 c58 -16 59 -21 62 -272 4 -227 0 -299 -17 -325 -5 -8 -24
-18 -42 -22 -23 -5 3 -8 81 -7 63 0 101 2 84 4 -63 8 -65 14 -62 278 l3 237
119 -261 c65 -144 123 -260 128 -259 5 2 62 119 126 261 l117 258 3 -237 c3
-263 1 -269 -62 -277 -17 -2 32 -4 109 -4 89 -1 128 2 107 7 -19 4 -39 13 -45
19 -17 17 -23 502 -7 553 8 29 17 39 38 44 51 11 47 12 -44 13 l-91 1 -113
-251 -113 -250 -34 73 c-19 40 -71 153 -115 251 l-81 177 -91 -1 c-72 -1 -84
-3 -60 -10z"/>
<path d="M2621 2998 c-30 -75 -64 -143 -78 -155 l-24 -23 53 1 c42 0 48 2 31
9 -27 11 -27 11 -9 55 15 34 17 35 71 35 55 0 56 -1 71 -37 15 -34 15 -38 -2
-50 -15 -11 -10 -13 40 -13 57 0 58 0 38 18 -12 9 -44 76 -72 147 -28 72 -55
133 -59 138 -4 4 -31 -53 -60 -125z m63 19 c32 -78 32 -77 -18 -77 -25 0 -46
3 -46 6 0 9 42 104 46 104 2 0 10 -15 18 -33z"/>
<path d="M2858 3105 l32 -14 0 -126 c0 -121 -1 -126 -22 -135 -18 -7 -11 -9
32 -9 43 0 50 2 33 9 -22 9 -23 15 -23 117 l1 108 25 -30 c13 -16 55 -69 92
-117 37 -48 70 -87 75 -88 4 0 7 63 7 140 0 136 1 141 23 150 17 7 10 9 -33 9
-43 0 -50 -2 -32 -9 21 -9 22 -15 22 -116 l0 -107 -87 116 -88 117 -45 -1 -45
0 33 -14z"/>
<path d="M3188 3110 c21 -9 22 -14 22 -140 0 -126 -1 -131 -22 -140 -17 -6 3
-9 67 -9 137 -1 193 37 203 137 3 40 0 59 -18 91 -31 54 -75 71 -188 70 -62 0
-81 -3 -64 -9z m162 -25 c81 -42 80 -189 -1 -230 -17 -9 -45 -15 -62 -13 l-32
3 -3 114 c-1 63 0 121 2 128 7 18 60 16 96 -2z"/>
<path d="M4230 2543 c-155 -54 -239 -206 -209 -377 43 -248 322 -351 503 -185
90 82 127 191 106 311 -15 80 -41 130 -96 184 -79 76 -201 103 -304 67z m181
-36 c148 -78 161 -449 19 -543 -97 -64 -216 -31 -269 75 -59 116 -51 313 15
414 48 73 152 97 235 54z"/>
<path d="M26 2543 c12 -2 30 -13 39 -23 9 -10 61 -142 115 -292 120 -333 118
-328 127 -328 5 0 39 88 77 194 39 107 73 193 76 191 4 -2 37 -90 75 -195 37
-105 73 -189 78 -187 6 2 56 136 112 298 55 162 104 300 109 307 5 8 22 20 40
28 29 12 24 13 -69 13 -78 -1 -93 -3 -68 -10 58 -17 55 -39 -49 -336 l-51
-146 -60 169 c-64 182 -85 259 -79 286 2 10 18 22 35 27 23 7 -3 9 -98 9 -72
-1 -120 -3 -109 -5 34 -7 63 -45 88 -116 l23 -66 -50 -146 c-28 -80 -53 -145
-56 -145 -10 0 -141 393 -141 421 0 29 13 44 45 52 11 2 -36 5 -105 4 -69 0
-115 -2 -104 -4z"/>
<path d="M958 2541 c19 -5 39 -14 45 -20 17 -17 17 -565 0 -582 -6 -6 -26 -15
-45 -19 -21 -5 18 -8 107 -7 77 0 127 2 110 4 -60 9 -65 23 -65 165 l0 128 33
0 c30 -1 39 -10 138 -148 l105 -147 90 -2 c89 -2 89 -2 49 13 -22 8 -52 27
-68 42 -25 24 -187 253 -187 265 0 3 12 8 28 12 46 11 89 44 106 79 36 76 8
159 -68 199 -37 20 -57 22 -226 24 -115 1 -172 -1 -152 -6z m288 -37 c21 -10
40 -31 54 -58 24 -51 25 -64 4 -116 -20 -50 -67 -80 -139 -87 l-55 -6 0 132
c0 127 1 132 23 141 34 14 76 12 113 -6z"/>
<path d="M1597 2540 c65 -15 63 -5 63 -310 0 -306 1 -303 -65 -313 -16 -2 35
-4 115 -4 92 -1 133 2 111 7 -67 16 -66 12 -66 309 0 248 1 271 19 289 10 12
32 23 50 25 17 2 -34 4 -114 4 -88 1 -132 -2 -113 -7z"/>
<path d="M1906 2528 c-9 -35 -7 -118 3 -118 5 0 11 13 14 28 3 16 15 39 25 52
17 21 30 25 96 28 l77 4 -3 -285 c-2 -200 -6 -290 -15 -298 -6 -6 -26 -15 -45
-19 -21 -5 17 -8 107 -8 93 0 129 3 105 8 -60 14 -60 16 -60 322 l0 278 60 0
c89 0 140 -32 140 -89 0 -12 5 -21 10 -21 6 0 10 30 10 70 l0 70 -259 0 -259
0 -6 -22z"/>
<path d="M2510 2540 c59 -14 60 -17 60 -310 0 -293 -1 -296 -60 -310 -22 -5
61 -8 211 -9 l247 -1 27 75 c16 42 24 79 20 83 -4 4 -10 1 -12 -6 -10 -27 -70
-97 -93 -109 -33 -17 -222 -17 -238 -1 -8 8 -12 55 -12 145 l0 133 93 0 c104
0 131 -11 142 -60 13 -61 25 -27 25 75 0 102 -12 136 -25 75 -11 -49 -38 -60
-142 -60 l-93 0 0 130 0 130 110 0 c61 0 120 -5 134 -11 16 -8 32 -28 42 -55
17 -45 41 -62 30 -21 -3 12 -6 43 -6 70 l0 47 -247 -1 c-151 -1 -235 -4 -213
-9z"/>
<path d="M3325 2534 c43 -22 43 -22 160 -204 l107 -164 -4 -108 c-2 -63 -8
-112 -15 -119 -6 -6 -26 -15 -45 -19 -21 -5 17 -8 107 -8 87 0 128 3 108 8
-60 14 -63 21 -63 148 l0 116 81 131 c111 176 125 194 173 216 l41 19 -115 -1
c-108 0 -113 -1 -82 -14 50 -22 43 -52 -40 -188 -40 -64 -75 -117 -78 -117 -8
0 -141 209 -153 240 -14 37 -4 57 35 69 25 7 -1 9 -107 10 -132 1 -138 0 -110
-15z"/>
<path d="M4685 2545 c6 -2 22 -6 37 -9 41 -9 48 -47 48 -268 0 -216 6 -246 58
-301 48 -51 79 -61 182 -62 108 0 160 19 203 77 40 53 47 100 47 309 0 182 1
198 20 222 11 14 33 28 48 30 15 2 -25 4 -88 4 -80 1 -104 -2 -80 -7 60 -14
62 -21 58 -265 -3 -188 -6 -225 -21 -253 -42 -78 -161 -113 -250 -74 -77 34
-82 50 -85 317 -3 255 -2 261 58 275 24 5 -11 8 -105 8 -77 0 -135 -1 -130 -3z"/>
<path d="M5408 2541 c19 -5 39 -14 45 -20 17 -17 17 -565 0 -582 -6 -6 -26
-15 -45 -19 -21 -5 18 -8 107 -7 77 0 127 2 110 4 -60 9 -65 23 -65 165 l0
128 33 0 c30 -1 39 -10 138 -148 l105 -147 85 -2 84 -2 -40 18 c-22 10 -55 35
-73 55 -30 34 -172 240 -172 250 0 2 12 7 28 11 46 11 89 44 106 79 36 76 8
159 -68 199 -37 20 -57 22 -226 24 -115 1 -172 -1 -152 -6z m288 -37 c21 -10
40 -31 54 -58 24 -51 25 -64 4 -116 -20 -50 -67 -80 -139 -87 l-55 -6 0 132
c0 127 1 132 23 141 34 14 76 12 113 -6z"/>
<path d="M680 1563 c-155 -54 -239 -206 -209 -377 43 -248 322 -351 503 -185
90 82 127 191 106 311 -15 80 -41 130 -96 184 -79 76 -201 103 -304 67z m181
-36 c148 -78 161 -449 19 -543 -97 -64 -216 -31 -269 75 -59 116 -51 313 15
414 48 73 152 97 235 54z"/>
<path d="M3213 1561 c-134 -46 -214 -164 -215 -317 0 -107 23 -167 92 -236 62
-62 124 -88 210 -88 86 0 150 26 208 86 28 29 52 61 52 69 0 10 -21 -6 -52
-38 -62 -62 -118 -83 -199 -74 -150 18 -231 160 -201 353 26 166 112 246 245
231 74 -9 119 -44 158 -122 17 -36 34 -63 36 -61 6 6 -8 216 -14 216 -3 0 -13
-10 -22 -22 l-18 -22 -67 22 c-80 26 -143 27 -213 3z"/>
<path d="M3850 1563 c-155 -54 -239 -206 -209 -377 43 -248 322 -351 503 -185
90 82 127 191 106 311 -15 80 -41 130 -96 184 -79 76 -201 103 -304 67z m181
-36 c148 -78 161 -449 19 -543 -97 -64 -216 -31 -269 75 -59 116 -51 313 15
414 48 73 152 97 235 54z"/>
<path d="M1146 1563 c12 -2 30 -13 39 -23 9 -10 61 -142 115 -292 120 -333
118 -328 127 -328 5 0 39 88 77 194 39 107 73 193 76 191 4 -2 37 -90 75 -195
37 -105 73 -189 78 -187 6 2 46 107 89 233 122 357 128 374 153 390 30 19 91
5 135 -32 l30 -26 0 -258 c0 -283 2 -275 -63 -290 -21 -5 8 -8 83 -8 78 0 104
3 82 8 -19 4 -39 13 -45 19 -14 14 -24 461 -10 460 4 0 100 -112 212 -250 112
-137 207 -249 212 -249 5 0 9 133 9 298 0 328 0 328 60 342 25 6 1 8 -80 8
-78 0 -104 -3 -82 -8 19 -4 39 -13 45 -19 8 -8 13 -83 15 -234 2 -131 -1 -218
-6 -212 -5 6 -93 115 -196 243 l-187 232 -182 -1 c-129 -1 -173 -4 -150 -10
58 -17 55 -39 -49 -336 l-51 -146 -60 169 c-64 182 -85 259 -79 286 2 10 18
22 35 27 23 7 -3 9 -98 9 -71 -1 -120 -3 -109 -5 34 -7 63 -45 88 -116 l23
-66 -50 -146 c-28 -80 -53 -145 -56 -145 -10 0 -141 393 -141 421 0 29 13 44
45 52 11 2 -36 5 -105 4 -69 0 -115 -2 -104 -4z"/>
<path d="M4338 1561 c19 -5 39 -14 45 -20 9 -9 12 -93 12 -291 0 -198 -3 -282
-12 -291 -6 -6 -26 -15 -45 -20 -20 -5 45 -7 167 -5 239 3 272 12 351 91 64
64 88 129 88 237 0 66 -5 86 -33 142 -18 37 -48 78 -68 95 -68 56 -107 64
-333 67 -125 2 -192 0 -172 -5z m334 -37 c57 -19 114 -73 142 -133 16 -36 21
-66 21 -136 0 -111 -19 -165 -78 -223 -63 -61 -144 -84 -236 -66 l-31 7 0 278
0 278 23 4 c50 10 116 6 159 -9z"/>
<path d="M5030 1560 c59 -14 60 -17 60 -310 0 -293 -1 -296 -60 -310 -22 -5
61 -8 211 -9 l247 -1 27 75 c16 42 24 79 20 83 -4 4 -10 1 -12 -6 -10 -27 -70
-97 -93 -109 -33 -17 -222 -17 -238 -1 -8 8 -12 55 -12 145 l0 133 93 0 c104
0 131 -11 142 -60 13 -61 25 -27 25 75 0 102 -12 136 -25 75 -11 -49 -38 -60
-142 -60 l-93 0 0 130 0 130 110 0 c61 0 120 -5 134 -11 16 -8 32 -28 42 -55
17 -45 41 -62 30 -21 -3 12 -6 43 -6 70 l0 47 -247 -1 c-151 -1 -235 -4 -213
-9z"/>
</g>
</svg>
